<svg width="28" height="26" viewBox="0 0 28 26" fill="none" xmlns="http://www.w3.org/2000/svg">
<path d="M8.06946 1H3.82778C3.07781 1 2.35855 1.28095 1.82824 1.78105C1.29793 2.28115 1 2.95942 1 3.66667V7.66667M26.45 7.66667V3.66667C26.45 2.95942 26.1521 2.28115 25.6218 1.78105C25.0915 1.28095 24.3722 1 23.6223 1H19.3806M19.3806 25H23.6223C24.3722 25 25.0915 24.719 25.6218 24.219C26.1521 23.7189 26.45 23.0406 26.45 22.3333V18.3333M1 18.3333V22.3333C1 23.0406 1.29793 23.7189 1.82824 24.219C2.35855 24.719 3.07781 25 3.82778 25H8.06946" stroke="#323232" stroke-width="2" stroke-linecap="round" stroke-linejoin="round"/>
<path fill-rule="evenodd" clip-rule="evenodd" d="M5.4668 13.04V20.08H6.32823H7.18965V13.04V6H6.32823H5.4668V13.04ZM7.95537 13.04V20.08H9.58251H11.2097V13.04V6H9.58251H7.95537V13.04ZM11.9754 13.04V20.08H12.7411H13.5068V13.04V6H12.7411H11.9754V13.04ZM14.2725 13.04V20.08H15.5168H16.7611V13.04V6H15.5168H14.2725V13.04ZM17.5268 13.04V20.08H18.2925H19.0582V13.04V6H18.2925H17.5268V13.04ZM19.8239 13.04V20.08H20.6854H21.5468V13.04V6H20.6854H19.8239V13.04Z" fill="#323232"/>
</svg>
