<svg width="11" height="15" viewBox="0 0 11 15" fill="none" xmlns="http://www.w3.org/2000/svg">
<path fill-rule="evenodd" clip-rule="evenodd" d="M4.59104 1.16259C2.96855 2.89676 1.50908 4.93954 0.709295 6.59577C0.0450932 7.97116 -0.00299482 8.17112 0.000130022 9.54651C0.00308126 10.8907 0.0558563 11.1191 0.593155 12.1156C1.25007 13.3337 1.79483 13.8596 3.10309 14.5393C3.85913 14.9321 4.20686 15 5.4653 15C6.72374 15 7.07146 14.9321 7.82768 14.5393C9.46075 13.6907 11.0827 11.3345 10.7938 10.2302C10.7454 10.0452 10.7874 9.89366 10.8871 9.89366C11.1579 9.89366 10.911 8.16938 10.4715 6.98996C10.2661 6.43904 9.71022 5.26082 9.23594 4.37161L8.37365 2.75478L7.8893 3.33017L7.40495 3.90539L6.89804 2.77717C6.61923 2.15664 6.25033 1.27802 6.07829 0.824471C5.90607 0.371099 5.74584 0 5.72205 0C5.69827 0 5.18927 0.523149 4.59104 1.16259ZM7.58862 7.10313C7.91482 7.56813 7.95666 7.51241 8.16533 6.33541L8.28841 5.64112L8.88422 6.88356C9.86958 8.93849 9.84007 10.5689 8.79204 11.9701L8.34258 12.571L8.20838 11.9252C8.1346 11.57 7.65182 10.6628 7.13552 9.90911C6.41073 8.85101 6.16804 8.32838 6.06995 7.61517L5.94288 6.69158L4.96619 7.73215C3.79854 8.97633 2.90172 10.5912 2.74547 11.7314L2.63159 12.5623L2.15714 11.9944C1.16743 10.8089 1.07733 9.13879 1.90576 7.32946C2.41476 6.21808 3.61331 4.38515 4.52264 3.32757L5.16879 2.576L6.23123 4.62936C6.81557 5.75863 7.42631 6.87175 7.58862 7.10313ZM6.20311 10.982C6.91765 11.9519 6.98015 12.2707 6.60013 13.0055C6.16908 13.839 5.18684 13.9704 4.50267 13.2861C3.92336 12.7071 3.95426 11.9725 4.61586 10.5879C5.09119 9.59338 5.17851 9.49756 5.3535 9.7791C5.46269 9.95458 5.84514 10.496 6.20311 10.982Z" fill="#FF4A55"/>
</svg>
