<svg width="24" height="23" viewBox="0 0 24 23" fill="none" xmlns="http://www.w3.org/2000/svg">
<path d="M17 20.125V18.2083C17 17.1917 16.5786 16.2166 15.8284 15.4978C15.0783 14.7789 14.0609 14.375 13 14.375H5C3.93913 14.375 2.92172 14.7789 2.17157 15.4978C1.42143 16.2166 1 17.1917 1 18.2083V20.125" stroke="#323232" stroke-width="2" stroke-linecap="round" stroke-linejoin="round"/>
<path d="M9 10.5417C11.2091 10.5417 13 8.82543 13 6.70833C13 4.59124 11.2091 2.875 9 2.875C6.79086 2.875 5 4.59124 5 6.70833C5 8.82543 6.79086 10.5417 9 10.5417Z" stroke="#323232" stroke-width="2" stroke-linecap="round" stroke-linejoin="round"/>
<path d="M23 20.125V18.2083C22.9993 17.359 22.7044 16.5339 22.1614 15.8626C21.6184 15.1914 20.8581 14.7119 20 14.4996" stroke="#323232" stroke-width="2" stroke-linecap="round" stroke-linejoin="round"/>
<path d="M16 2.99959C16.8604 3.21071 17.623 3.69026 18.1676 4.36264C18.7122 5.03501 19.0078 5.86197 19.0078 6.71313C19.0078 7.56429 18.7122 8.39125 18.1676 9.06362C17.623 9.736 16.8604 10.2155 16 10.4267" stroke="#323232" stroke-width="2" stroke-linecap="round" stroke-linejoin="round"/>
</svg>
