<svg width="14" height="17" viewBox="0 0 14 17" fill="none" xmlns="http://www.w3.org/2000/svg">
<path d="M7 14.9503L6.57449 15.5679C6.8307 15.7445 7.1693 15.7445 7.42551 15.5679L7 14.9503ZM7 14.9503C7.42551 15.5679 7.42569 15.5678 7.4259 15.5677L7.42641 15.5673L7.42779 15.5664L7.43197 15.5635L7.44595 15.5537C7.45046 15.5505 7.45568 15.5469 7.46159 15.5427C7.47111 15.5359 7.48243 15.5279 7.49548 15.5186C7.53776 15.4883 7.5982 15.4444 7.67419 15.3877C7.8261 15.2743 8.0406 15.1093 8.29688 14.8984C8.80831 14.4775 9.4919 13.8694 10.1779 13.1212C11.522 11.6549 13 9.51568 13 7.11346C13 5.48342 12.3736 3.91538 11.2513 2.75549C10.1281 1.59476 8.59941 0.937927 7 0.937927C5.40059 0.937927 3.87189 1.59476 2.74871 2.75549C1.62635 3.91538 1 5.48342 1 7.11346C1 9.51568 2.47804 11.6549 3.82215 13.1212C4.5081 13.8694 5.19169 14.4775 5.70312 14.8984C5.9594 15.1093 6.1739 15.2743 6.32581 15.3877C6.4018 15.4444 6.46224 15.4883 6.50452 15.5186C6.52567 15.5337 6.54228 15.5454 6.55405 15.5537L6.56803 15.5635L6.57221 15.5664L6.57359 15.5673L6.5741 15.5677C6.57431 15.5678 6.57449 15.5679 7 14.9503Z" stroke="#22C771" stroke-width="1.5" stroke-linecap="round" stroke-linejoin="round"/>
<path d="M7 9.67201C8.40377 9.67201 9.5 8.50309 9.5 7.1135C9.5 5.72392 8.40377 4.55499 7 4.55499C5.59623 4.55499 4.5 5.72392 4.5 7.1135C4.5 8.50309 5.59623 9.67201 7 9.67201Z" stroke="#22C771" stroke-width="1.5" stroke-linecap="round" stroke-linejoin="round"/>
</svg>
