<svg width="14" height="14" viewBox="0 0 14 14" fill="none" xmlns="http://www.w3.org/2000/svg">
<path d="M10.2954 9.43193C11.1962 9.49911 12.0935 9.36844 12.9271 9.05728C12.706 9.68828 12.3842 10.2829 11.9711 10.8171C11.2433 11.7585 10.2624 12.4731 9.14321 12.8774C8.02404 13.2817 6.81287 13.3588 5.65145 13.0998C4.49002 12.8409 3.42636 12.2565 2.58494 11.4151C1.74352 10.5736 1.15914 9.50998 0.900164 8.34855C0.641194 7.18713 0.71835 5.97596 1.1226 4.85679C1.52686 3.73761 2.24149 2.75671 3.18288 2.02886C3.71707 1.61585 4.31172 1.29401 4.94272 1.07285C4.63156 1.9065 4.50089 2.80379 4.56807 3.70462C4.67861 5.18694 5.31752 6.58035 6.36859 7.63142C7.41965 8.68248 8.81307 9.32139 10.2954 9.43193Z" stroke="#29BDDE" stroke-width="1.5" stroke-linecap="round" stroke-linejoin="round"/>
</svg>
