<svg width="15" height="13" viewBox="0 0 15 13" fill="none" xmlns="http://www.w3.org/2000/svg">
<path fill-rule="evenodd" clip-rule="evenodd" d="M5.7299 0.226591C1.11852 1.41437 -1.33307 6.75007 0.74862 11.0684C1.72382 13.091 2.01186 13.3329 2.65753 12.6708C3.15079 12.1651 3.15192 12.1569 2.80542 11.6524C-0.236959 7.22309 2.36818 1.69168 7.4996 1.6853C12.6216 1.67911 15.2341 7.22619 12.1938 11.6524C11.8473 12.1569 11.8484 12.1651 12.3417 12.6708C12.9873 13.3329 13.2754 13.091 14.2506 11.0684C16.9989 5.36717 11.742 -1.32165 5.7299 0.226591ZM7.99286 5.93708C5.91023 7.84173 5.98888 7.66324 6.81243 8.61218L7.44565 9.34183L9.17028 7.372C11.0019 5.27995 11.0911 5.10049 10.5499 4.59846C10.0255 4.1119 9.93893 4.15716 7.99286 5.93708Z" fill="#4DC722"/>
</svg>
