<svg width="16" height="25" viewBox="0 0 16 25" fill="none" xmlns="http://www.w3.org/2000/svg">
<path d="M10.397 4.68681C11.7218 4.68681 12.7966 3.63716 12.7966 2.34341C12.7966 1.04965 11.7218 0 10.397 0C9.07222 0 7.9974 1.04965 7.9974 2.34341C7.9974 3.63716 9.07222 4.68681 10.397 4.68681ZM15.1212 11.966L13.9564 11.3899L13.4715 9.9546C12.7366 7.77718 10.6869 6.25397 8.36234 6.24908C6.56264 6.2442 5.56781 6.74218 3.69813 7.47937C2.61831 7.90412 1.73346 8.70966 1.21354 9.7349L0.878602 10.3989C0.488667 11.1702 0.803614 12.1076 1.58848 12.4933C2.36835 12.879 3.31819 12.5665 3.71312 11.7951L4.04807 11.1312C4.22304 10.7894 4.51299 10.5209 4.87293 10.3793L6.2127 9.85207L5.45283 12.8155C5.19287 13.831 5.47283 14.9099 6.1977 15.6862L9.1922 18.8791C9.55214 19.2648 9.80709 19.7286 9.93707 20.2314L10.8519 23.81C11.0669 24.6448 11.9367 25.1574 12.7916 24.9475C13.6464 24.7376 14.1714 23.8881 13.9564 23.0533L12.8466 18.7082C12.7166 18.2053 12.4616 17.7367 12.1017 17.3559L9.82709 14.9295L10.6869 11.5755L10.9619 12.381C11.2269 13.167 11.7968 13.8163 12.5466 14.1874L13.7114 14.7635C14.4913 15.1491 15.4411 14.8367 15.8361 14.0653C16.221 13.2988 15.9061 12.3517 15.1212 11.966ZM3.67813 18.8351C3.51816 19.2306 3.2782 19.587 2.96825 19.8848L0.468671 22.3307C-0.156224 22.941 -0.156224 23.932 0.468671 24.5423C1.09357 25.1526 2.10339 25.1526 2.72829 24.5423L5.69779 21.6423C6.00274 21.3445 6.2427 20.9881 6.40767 20.5927L7.08255 18.9425C4.31802 15.9986 5.14788 16.9018 4.71295 16.3209L3.67813 18.8351Z" fill="#1E42FF"/>
</svg>
