<svg width="10" height="15" viewBox="0 0 10 15" fill="none" xmlns="http://www.w3.org/2000/svg">
<path d="M6.49812 2.81209C7.32611 2.81209 7.99787 2.1823 7.99787 1.40604C7.99787 0.629791 7.32611 0 6.49812 0C5.67014 0 4.99837 0.629791 4.99837 1.40604C4.99837 2.1823 5.67014 2.81209 6.49812 2.81209ZM9.45075 7.17961L8.72275 6.83396L8.41967 5.97276C7.96037 4.66631 6.67934 3.75238 5.22646 3.74945C4.10165 3.74652 3.47988 4.04531 2.31133 4.48762C1.63644 4.74247 1.08341 5.2258 0.758466 5.84094L0.549126 6.23932C0.305417 6.70214 0.502259 7.26456 0.992801 7.49597C1.48022 7.72738 2.07387 7.53991 2.3207 7.07709L2.53004 6.67871C2.6394 6.47366 2.82062 6.31255 3.04558 6.2276L3.88294 5.91124L3.40802 7.6893C3.24555 8.29859 3.42052 8.94595 3.87356 9.41171L5.74512 11.3274C5.97009 11.5589 6.12943 11.8371 6.21067 12.1388L6.78245 14.286C6.9168 14.7869 7.46046 15.0945 7.99474 14.9685C8.52903 14.8426 8.8571 14.3329 8.72275 13.832L8.02911 11.2249C7.94788 10.9232 7.78853 10.642 7.56357 10.4135L6.14193 8.95767L6.67934 6.94527L6.85119 7.4286C7.01678 7.90021 7.37297 8.2898 7.84164 8.51242L8.56965 8.85808C9.05706 9.08949 9.65071 8.90202 9.89755 8.43919C10.1381 7.9793 9.94129 7.41102 9.45075 7.17961ZM2.29883 11.3011C2.19885 11.5383 2.04887 11.7522 1.85516 11.9309L0.292919 13.3984C-0.0976398 13.7646 -0.0976398 14.3592 0.292919 14.7254C0.683478 15.0915 1.31462 15.0915 1.70518 14.7254L3.56112 12.9854C3.75171 12.8067 3.90168 12.5929 4.00479 12.3556L4.4266 11.3655C2.69876 9.59918 3.21743 10.1411 2.9456 9.79251L2.29883 11.3011Z" fill="#1E42FF"/>
</svg>
